<?xml version="1.0" encoding="UTF-8" standalone="no"?>
<!DOCTYPE svg PUBLIC "-//W3C//DTD SVG 20010904//EN" "http://www.w3.org/TR/2001/REC-SVG-20010904/DTD/svg10.dtd">
<svg version="1.0" xmlns="http://www.w3.org/2000/svg" width="1250.000000pt" height="1250.000000pt" viewBox="0 0 1250.000000 1250.000000" preserveAspectRatio="xMidYMid meet">
<metadata>
Created by potrace 1.15, written by Peter Selinger 2001-2017
</metadata>
<g transform="translate(0.000000,1250.000000) scale(0.100000,-0.100000)" fill="#fff" stroke="none">
<path d="M5920 11334 c-69 -7 -254 -32 -411 -54 -733 -104 -1164 -234 -1480 -446 -173 -116 -466 -370 -758 -658 -305 -300 -368 -404 -545 -906 -188 -533 -225 -617 -303 -695 -24 -25 -104 -81 -178 -125 -170 -102 -287 -193 -400 -311 -109 -114 -138 -167 -201 -364 -26 -82 -71 -216 -100 -296 -90 -250 -89 -235 -87 -784 2 -570 26 -995 103 -1765 40 -405 65 -570 96 -645 36 -86 41 -105 62 -253 14 -93 25 -139 37 -153 10 -10 61 -48 114 -83 53 -35 108 -76 123 -92 41 -44 94 -161 111 -244 92 -444 200 -834 255 -920 66 -104 238 -269 331 -319 76 -40 198 -75 431 -121 581 -116 1085 -163 1499 -141 222 12 328 29 406 65 161 73 404 285 547 476 80 107 236 406 308 590 12 30 35 87 52 125 16 39 36 85 44 103 17 41 95 125 150 163 l41 28 135 -9 c212 -14 342 -53 378 -112 10 -16 39 -100 65 -186 132 -441 299 -867 393 -1005 192 -278 442 -395 937 -437 209 -18 685 -23 928 -11 701 36 966 138 1170 452 120 183 235 432 333 719 102 301 102 301 244 359 44 19 98 46 120 62 74 54 132 227 134 403 1 120 -26 202 -115 352 l-68 114 19 53 c10 28 25 69 34 89 27 64 64 203 75 285 6 43 18 290 26 548 8 259 21 544 27 635 16 218 16 965 0 1090 -21 172 -86 367 -188 571 l-43 86 21 184 c26 241 28 505 4 612 -38 174 -101 316 -266 602 -149 259 -234 381 -329 476 -101 100 -175 147 -375 234 -245 107 -254 116 -398 441 -115 258 -173 349 -325 505 -153 157 -243 229 -356 283 -338 162 -1101 324 -1915 406 -414 42 -684 49 -912 24z m190 -2138 c92 -20 797 -348 858 -400 41 -35 47 -48 128 -248 133 -332 204 -438 484 -719 275 -276 342 -318 732 -463 258 -96 432 -128 763 -140 88 -4 192 -9 231 -12 l71 -5 58 -97 c72 -121 276 -419 364 -532 36 -47 116 -143 176 -215 152 -179 169 -201 208 -281 55 -109 98 -259 162 -563 45 -212 55 -306 55 -521 0 -272 14 -459 45 -620 25 -124 25 -133 10 -157 -17 -25 -17 -25 -129 -19 -61 4 -232 18 -381 32 -612 56 -708 64 -890 74 -234 12 -788 13 -1110 0 -167 -6 -340 -21 -570 -49 -181 -21 -357 -42 -390 -46 -33 -3 -219 -10 -413 -14 l-353 -8 -107 34 c-729 232 -1362 337 -2367 394 -266 15 -860 15 -1030 0 -316 -28 -511 -41 -665 -43 l-165 -3 -6 90 c-6 91 -2 134 25 260 8 39 24 210 36 380 23 354 47 561 95 827 38 203 64 286 121 375 48 76 187 256 367 477 277 340 391 542 561 996 82 219 105 267 147 321 35 44 58 54 174 73 113 19 273 65 575 166 457 152 734 268 1031 433 269 148 362 179 649 216 175 23 361 26 450 7z m-1995 -4895 c376 -23 568 -45 951 -111 408 -69 649 -137 710 -201 l29 -30 0 -202 c0 -115 -6 -238 -13 -286 -35 -221 -221 -692 -349 -882 -132 -194 -328 -353 -523 -421 -75 -26 -399 -41 -745 -33 -286 7 -419 16 -630 46 -394 56 -739 145 -856 219 -68 44 -162 147 -197 215 -68 137 -144 427 -177 680 -8 66 -20 152 -25 191 -12 78 -8 115 22 249 46 209 121 388 204 489 84 104 31 98 779 92 358 -3 727 -10 820 -15z m4895 -281 c374 -19 913 -69 1080 -100 127 -24 171 -70 211 -221 57 -222 84 -424 69 -528 -33 -232 -244 -776 -365 -939 -116 -159 -334 -256 -703 -313 -116 -18 -195 -22 -525 -26 -769 -10 -1114 46 -1343 220 -191 145 -403 579 -468 957 -37 215 -30 389 24 606 61 240 79 254 390 289 79 9 279 27 445 40 338 25 846 32 1185 15z"/>
</g>
</svg>
