<?xml version="1.0" encoding="UTF-8" standalone="no"?>
<svg
   xmlns:dc="http://purl.org/dc/elements/1.1/"
   xmlns:cc="http://creativecommons.org/ns#"
   xmlns:rdf="http://www.w3.org/1999/02/22-rdf-syntax-ns#"
   xmlns:svg="http://www.w3.org/2000/svg"
   xmlns="http://www.w3.org/2000/svg"
   xmlns:sodipodi="http://sodipodi.sourceforge.net/DTD/sodipodi-0.dtd"
   xmlns:inkscape="http://www.inkscape.org/namespaces/inkscape"
   fill="#212121"
   height="24"
   viewBox="0 0 24 24"
   width="24"
   version="1.1"
   id="svg142"
   sodipodi:docname="id-pattern.svg"
   inkscape:version="0.92.3 (2405546, 2018-03-11)">
  <metadata
     id="metadata148">
    <rdf:RDF>
      <cc:Work
         rdf:about="">
        <dc:format>image/svg+xml</dc:format>
        <dc:type
           rdf:resource="http://purl.org/dc/dcmitype/StillImage" />
      </cc:Work>
    </rdf:RDF>
  </metadata>
  <defs
     id="defs146" />
  <sodipodi:namedview
     pagecolor="#ffffff"
     bordercolor="#666666"
     borderopacity="1"
     objecttolerance="10"
     gridtolerance="10"
     guidetolerance="10"
     inkscape:pageopacity="0"
     inkscape:pageshadow="2"
     inkscape:window-width="1600"
     inkscape:window-height="873"
     id="namedview144"
     showgrid="false"
     inkscape:zoom="9.8333333"
     inkscape:cx="12"
     inkscape:cy="12"
     inkscape:window-x="0"
     inkscape:window-y="27"
     inkscape:window-maximized="1"
     inkscape:current-layer="svg142" />
  <path
     d="M0 0h24v24H0z"
     id="path138"
     fill="none" />
  <path
     d="M 13,20.94 C 17.17,20.48 20.48,17.17 20.94,13 H 23 V 11 H 20.94 C 20.48,6.83 17.17,3.52 13,3.06 V 1 H 11 V 3.06 C 6.83,3.52 3.52,6.83 3.06,11 H 1 v 2 h 2.06 c 0.46,4.17 3.77,7.48 7.94,7.94 V 23 h 2 z M 5,12 c 0,-3.87 3.13,-7 7,-7 3.87,0 7,3.13 7,7 0,3.87 -3.13,7 -7,7 -3.87,0 -7,-3.13 -7,-7 z"
     id="path140"
     inkscape:connector-curvature="0" />
</svg>
